<?xml version="1.0" encoding="UTF-8"?>
<svg xmlns="http://www.w3.org/2000/svg" width="80px" height="80px" viewBox="0 0 80 80" version="1.1">
<g id="surface1">
<path stroke="none" fill-rule="nonzero" fill="#FFFFFF" fill-opacity="1" d="M 35.703125 3.46875 C 30.84375 4.015625 25.03125 6.046875 20.78125 8.671875 C 17.34375 10.8125 13.40625 14.3125 11.0625 17.34375 C 7.0625 22.515625 4.546875 28.46875 3.5625 35.078125 C 3.25 37.203125 3.296875 43.078125 3.640625 45.3125 C 5.25 55.703125 11 64.765625 19.6875 70.5625 C 24.171875 73.546875 29.421875 75.5625 34.78125 76.359375 C 37.34375 76.734375 42.65625 76.734375 45.21875 76.359375 C 51.640625 75.40625 57.953125 72.65625 62.96875 68.640625 C 70.140625 62.890625 74.90625 54.625 76.359375 45.4375 C 76.75 42.953125 76.75 37.046875 76.359375 34.5625 C 75.0625 26.375 71.21875 19.015625 65.296875 13.375 C 59.515625 7.875 51.84375 4.296875 44.03125 3.453125 C 42.25 3.25 37.484375 3.265625 35.703125 3.46875 Z M 33.921875 19.4375 C 35.125 19.75 36.171875 20.171875 38.015625 21.0625 C 38.078125 21.09375 38.125 20.96875 38.125 20.796875 C 38.125 20.1875 38.59375 20.484375 39.59375 21.734375 C 39.953125 22.203125 40.125 22.546875 40.0625 22.71875 C 39.984375 22.90625 40.03125 22.953125 40.21875 22.875 C 40.359375 22.828125 40.46875 22.71875 40.46875 22.625 C 40.46875 22.546875 40.859375 22.0625 41.34375 21.546875 C 42.078125 20.796875 42.4375 20.546875 43.46875 20.15625 C 45.65625 19.3125 46.453125 19.171875 48.984375 19.15625 C 51.09375 19.140625 52.078125 19.203125 53.28125 19.453125 C 53.484375 19.484375 53.90625 19.5625 54.21875 19.609375 C 54.53125 19.65625 54.921875 19.71875 55.109375 19.75 C 55.28125 19.796875 55.703125 19.859375 56.03125 19.90625 C 56.375 19.96875 57.0625 20.078125 57.578125 20.15625 C 58.09375 20.25 58.734375 20.359375 59 20.390625 C 59.40625 20.46875 59.625 20.6875 60.25 21.625 L 61.015625 22.78125 L 63.546875 23.28125 L 66.09375 23.796875 L 66.09375 52.1875 L 65.4375 52.1875 C 65.0625 52.1875 63.109375 52.046875 61.09375 51.875 C 59.078125 51.703125 55.8125 51.46875 53.828125 51.328125 C 51.859375 51.203125 48.96875 50.984375 47.4375 50.859375 C 45 50.65625 44.609375 50.65625 44.390625 50.84375 C 44.21875 51 43.375 51.125 41.453125 51.234375 C 39.96875 51.328125 38.578125 51.40625 38.34375 51.40625 L 37.921875 51.40625 L 38.03125 53 C 38.078125 53.890625 38.234375 55.859375 38.375 57.375 C 38.5 58.90625 38.59375 60.296875 38.5625 60.484375 C 38.515625 60.78125 38.46875 60.75 38.125 60.234375 C 37.90625 59.90625 37.65625 59.609375 37.546875 59.578125 C 37.453125 59.53125 37.171875 59.796875 36.9375 60.140625 C 36.703125 60.5 36.46875 60.78125 36.40625 60.78125 C 36.296875 60.78125 36.25 60.296875 35.859375 55 C 35.53125 50.59375 35.578125 50.78125 34.875 50.78125 C 34.5625 50.78125 33.53125 50.84375 32.578125 50.9375 C 31.640625 51.015625 29.625 51.15625 28.125 51.25 C 26.625 51.34375 23.09375 51.59375 20.296875 51.796875 C 17.5 52.015625 14.921875 52.1875 14.5625 52.1875 L 13.90625 52.1875 L 13.90625 23.78125 L 14.265625 23.703125 C 14.453125 23.65625 15.5625 23.46875 16.75 23.265625 L 18.875 22.921875 L 19.53125 21.734375 L 20.1875 20.53125 L 23.96875 20.015625 C 26.03125 19.71875 28.328125 19.390625 29.0625 19.296875 C 31.1875 18.984375 32.3125 19.03125 33.921875 19.4375 Z M 33.921875 19.4375 "/>
<path stroke="none" fill-rule="nonzero" fill="#FFFFFF" fill-opacity="1" d="M 46.953125 20.40625 C 46.34375 20.5 45.125 20.84375 44.21875 21.15625 C 42.828125 21.625 42.484375 21.8125 41.9375 22.375 C 41.578125 22.765625 41.15625 23.4375 40.953125 23.953125 C 40.625 24.859375 40.625 24.9375 40.65625 35.421875 L 40.703125 45.984375 L 41.4375 45.421875 C 42.546875 44.5625 43 44.390625 44.8125 44.0625 C 46.890625 43.6875 51.6875 43.640625 54.375 43.96875 C 55.359375 44.09375 56.609375 44.234375 57.15625 44.28125 L 58.125 44.375 L 58.125 21.46875 L 55.515625 20.953125 C 53.90625 20.625 52.25 20.40625 51.25 20.359375 C 50.34375 20.328125 49.25 20.28125 48.828125 20.265625 C 48.390625 20.234375 47.546875 20.296875 46.953125 20.40625 Z M 46.953125 20.40625 "/>
<path stroke="none" fill-rule="nonzero" fill="#FFFFFF" fill-opacity="1" d="M 30 20.515625 C 29.953125 20.5625 28.9375 20.671875 27.734375 20.765625 C 24.8125 21 21.984375 21.40625 21.84375 21.625 C 21.65625 21.90625 21.6875 44.1875 21.875 44.296875 C 22.125 44.453125 35.21875 44.046875 35.328125 43.890625 C 35.375 43.8125 35.5 42.671875 35.609375 41.359375 C 35.90625 37.671875 36.078125 36.09375 36.5625 32.96875 C 36.796875 31.375 37.234375 28.359375 37.5 26.265625 C 37.984375 22.59375 38 22.4375 37.71875 22.234375 C 36.890625 21.625 33.3125 20.65625 31.40625 20.53125 C 30.671875 20.46875 30.046875 20.46875 30 20.515625 Z M 30 20.515625 "/>
<path stroke="none" fill-rule="nonzero" fill="#FFFFFF" fill-opacity="1" d="M 20.375 23.140625 C 20.265625 23.265625 19.71875 24.046875 19.15625 24.890625 L 18.125 26.4375 L 18.125 37.203125 C 18.125 43.125 18.171875 47.96875 18.25 47.96875 C 18.3125 47.96875 18.875 47.203125 19.5 46.265625 L 20.625 44.578125 L 20.59375 33.75 C 20.5625 25.609375 20.5 22.96875 20.375 23.140625 Z M 20.375 23.140625 "/>
<path stroke="none" fill-rule="nonzero" fill="#FFFFFF" fill-opacity="1" d="M 59.375 33.796875 L 59.375 44.453125 L 60.390625 46.078125 C 60.9375 46.96875 61.46875 47.78125 61.5625 47.875 C 61.671875 47.984375 61.71875 44.796875 61.71875 37.3125 L 61.71875 26.59375 L 60.671875 24.859375 C 60.109375 23.90625 59.578125 23.125 59.5 23.125 C 59.4375 23.125 59.375 27.921875 59.375 33.796875 Z M 59.375 33.796875 "/>
<path stroke="none" fill-rule="nonzero" fill="#FFFFFF" fill-opacity="1" d="M 39.1875 30.15625 C 38.796875 31 37.65625 40.546875 37.65625 42.96875 L 37.65625 44.8125 L 38.453125 45.3125 C 38.890625 45.578125 39.28125 45.765625 39.3125 45.734375 C 39.34375 45.703125 39.359375 42.125 39.34375 37.796875 C 39.3125 33.46875 39.25 30.03125 39.1875 30.15625 Z M 39.1875 30.15625 "/>
<path stroke="none" fill-rule="nonzero" fill="#FFFFFF" fill-opacity="1" d="M 28.203125 44.484375 C 27 44.5625 23.921875 44.84375 23.046875 44.953125 C 22.390625 45.046875 22.328125 45.078125 22.65625 45.171875 C 23 45.265625 22.984375 45.28125 22.5 45.296875 C 21.53125 45.328125 21.3125 45.46875 20.734375 46.453125 C 20.421875 46.984375 19.921875 47.828125 19.609375 48.3125 C 19.171875 49.0625 19.125 49.21875 19.34375 49.21875 C 19.921875 49.21875 27.1875 48.734375 30.984375 48.4375 C 33.203125 48.265625 35.078125 48.125 35.15625 48.125 C 35.4375 48.125 35.34375 46.921875 35.046875 46.8125 C 34.828125 46.71875 34.828125 46.6875 35.09375 46.484375 C 35.34375 46.3125 35.359375 46.234375 35.1875 46.0625 C 35.046875 45.921875 34.25 45.859375 32.21875 45.828125 C 30.6875 45.8125 29.34375 45.765625 29.21875 45.71875 C 29.09375 45.671875 28.734375 45.609375 28.4375 45.578125 C 28.140625 45.53125 29.5625 45.515625 31.609375 45.53125 C 35.203125 45.546875 35.328125 45.53125 35.28125 45.25 C 35.21875 44.875 34.84375 44.765625 32.8125 44.546875 C 31.328125 44.390625 30.015625 44.359375 28.203125 44.484375 Z M 28.203125 44.484375 "/>
<path stroke="none" fill-rule="nonzero" fill="#FFFFFF" fill-opacity="1" d="M 45.984375 44.84375 C 44.40625 45.015625 43.296875 45.296875 42.6875 45.65625 C 41.984375 46.078125 40.9375 47.5 40.9375 48.015625 C 40.9375 48.40625 40.984375 48.4375 41.53125 48.421875 C 41.84375 48.421875 42.390625 48.328125 42.71875 48.234375 C 43.203125 48.078125 44.078125 48.109375 46.9375 48.3125 C 50.234375 48.546875 55.578125 48.921875 59.421875 49.15625 L 60.953125 49.25 L 60.515625 48.453125 C 60.28125 48.015625 59.78125 47.1875 59.421875 46.59375 L 58.765625 45.515625 L 56.21875 45.15625 C 53.453125 44.765625 48.09375 44.59375 45.984375 44.84375 Z M 45.984375 44.84375 "/>
</g>
</svg>
