<?xml version="1.0" encoding="UTF-8"?>
<svg xmlns="http://www.w3.org/2000/svg" xmlns:xlink="http://www.w3.org/1999/xlink" width="30px" height="30px" viewBox="0 0 30 30" version="1.1">
<g id="surface1">
<path stroke="none" fill-rule="nonzero" fill="rgb(100%,100%,100%)" fill-opacity="1" d="M 25.699219 23.050781 L 20.941406 18.289062 C 21.925781 16.808594 22.5 15.03125 22.5 13.125 C 22.5 7.957031 18.292969 3.75 13.125 3.75 C 7.957031 3.75 3.75 7.957031 3.75 13.125 C 3.75 18.292969 7.957031 22.5 13.125 22.5 C 15.03125 22.5 16.808594 21.925781 18.289062 20.941406 L 23.050781 25.699219 C 23.78125 26.433594 24.96875 26.433594 25.699219 25.699219 C 26.433594 24.96875 26.433594 23.78125 25.699219 23.050781 Z M 6.5625 13.125 C 6.5625 9.507812 9.507812 6.5625 13.125 6.5625 C 16.742188 6.5625 19.6875 9.507812 19.6875 13.125 C 19.6875 16.742188 16.742188 19.6875 13.125 19.6875 C 9.507812 19.6875 6.5625 16.742188 6.5625 13.125 Z M 6.5625 13.125 "/>
</g>
</svg>
