<?xml version="1.0" encoding="UTF-8"?>
<svg xmlns="http://www.w3.org/2000/svg" xmlns:xlink="http://www.w3.org/1999/xlink" width="40px" height="40px" viewBox="0 0 40 40" version="1.1">
<g id="surface1">
<path stroke="none" fill-rule="nonzero" fill="rgb(100%,100%,100%)" fill-opacity="1" d="M 6 0 L 34 0 C 37.3125 0 40 2.6875 40 6 L 40 34 C 40 37.3125 37.3125 40 34 40 L 6 40 C 2.6875 40 0 37.3125 0 34 L 0 6 C 0 2.6875 2.6875 0 6 0 Z M 6 0 "/>
<path stroke="none" fill-rule="nonzero" fill="rgb(0,33,55)" fill-opacity="1" d="M 15.546875 31.5625 C 14.6875 31.5625 14.765625 31.25 14.53125 30.46875 L 12.03125 22.265625 L 31.171875 11.015625 "/>
<path stroke="none" fill-rule="nonzero" fill="rgb(0,33,55)" fill-opacity="1" d="M 15.546875 31.5625 C 16.09375 31.5625 16.40625 31.25 16.796875 30.9375 L 20.3125 27.578125 L 15.9375 24.921875 "/>
<path stroke="none" fill-rule="nonzero" fill="rgb(0,33,55)" fill-opacity="1" d="M 15.9375 24.921875 L 26.484375 32.65625 C 27.578125 33.359375 28.515625 32.96875 28.828125 31.5625 L 33.125 11.40625 C 33.515625 9.6875 32.421875 8.90625 31.25 9.453125 L 6.171875 19.140625 C 4.53125 19.765625 4.53125 20.78125 5.859375 21.171875 L 12.34375 23.203125 L 27.1875 13.75 C 27.890625 13.359375 28.515625 13.515625 28.046875 14.0625 "/>
</g>
</svg>
