<?xml version="1.0" encoding="UTF-8"?>
<svg xmlns="http://www.w3.org/2000/svg" xmlns:xlink="http://www.w3.org/1999/xlink" width="40px" height="40px" viewBox="0 0 40 40" version="1.1">
    <g id="surface1">
        <path stroke="none" fill-rule="nonzero" fill="#FFFFFF" fill-opacity="1" d="M 25.117188 3.332031 L 14.882812 3.332031 C 5.550781 3.332031 3.332031 5.550781 3.332031 14.882812 L 3.332031 25.117188 C 3.332031 34.449219 5.550781 36.667969 14.882812 36.667969 L 25.117188 36.667969 C 34.449219 36.667969 36.667969 34.449219 36.667969 25.117188 L 36.667969 14.882812 C 36.667969 5.550781 34.449219 3.332031 25.117188 3.332031 M 30.25 27.117188 L 27.816406 27.117188 C 26.898438 27.117188 26.617188 26.367188 25 24.714844 C 23.535156 23.332031 22.898438 23.132812 22.550781 23.132812 C 22.066406 23.132812 21.917969 23.265625 21.917969 23.964844 L 21.917969 26.148438 C 21.917969 26.734375 21.734375 27.101562 20.183594 27.101562 C 17.617188 27.101562 14.765625 25.535156 12.765625 22.648438 C 9.75 18.417969 8.933594 15.214844 8.933594 14.582031 C 8.933594 14.234375 9.050781 13.898438 9.75 13.898438 L 12.199219 13.898438 C 12.816406 13.898438 13.050781 14.167969 13.285156 14.832031 C 14.484375 18.332031 16.484375 21.332031 17.300781 21.332031 C 17.617188 21.332031 17.75 21.183594 17.75 20.417969 L 17.75 16.832031 C 17.667969 15.199219 16.785156 15.050781 16.785156 14.464844 C 16.785156 14.167969 17.015625 13.898438 17.398438 13.898438 L 21.214844 13.898438 C 21.734375 13.898438 21.917969 14.167969 21.917969 14.800781 L 21.917969 19.617188 C 21.917969 20.132812 22.132812 20.316406 22.300781 20.316406 C 22.601562 20.316406 22.867188 20.132812 23.417969 19.566406 C 25.167969 17.617188 26.417969 14.601562 26.417969 14.601562 C 26.582031 14.25 26.851562 13.917969 27.5 13.917969 L 29.882812 13.917969 C 30.617188 13.917969 30.785156 14.300781 30.617188 14.816406 C 30.316406 16.234375 27.351562 20.417969 27.382812 20.417969 C 27.117188 20.832031 27.015625 21.015625 27.382812 21.5 C 27.632812 21.851562 28.484375 22.582031 29.050781 23.234375 C 30.082031 24.417969 30.882812 25.398438 31.101562 26.082031 C 31.285156 26.765625 30.949219 27.117188 30.25 27.117188 Z M 30.25 27.117188 "/>
    </g>
</svg>
