<?xml version="1.0" encoding="UTF-8"?>
<svg xmlns="http://www.w3.org/2000/svg" xmlns:xlink="http://www.w3.org/1999/xlink" width="40px" height="40px" viewBox="0 0 40 40" version="1.1">
<g id="surface1">
<path stroke="none" fill-rule="nonzero" fill="#FFFFFF" fill-opacity="1" d="M 35 4.375 L 5 4.375 C 3.273438 4.375 1.875 5.773438 1.875 7.5 L 1.875 32.5 C 1.875 34.226562 3.273438 35.625 5 35.625 L 35 35.625 C 36.726562 35.625 38.125 34.226562 38.125 32.5 L 38.125 7.5 C 38.125 5.773438 36.726562 4.375 35 4.375 Z M 36.875 32.5 C 36.875 33.535156 36.035156 34.375 35 34.375 L 5 34.375 C 3.964844 34.375 3.125 33.535156 3.125 32.5 L 3.125 10.625 L 36.875 10.625 Z M 3.125 9.375 L 3.125 7.5 C 3.125 6.464844 3.964844 5.625 5 5.625 L 35 5.625 C 36.035156 5.625 36.875 6.464844 36.875 7.5 L 36.875 9.375 Z M 34.375 7.5 C 34.375 7.84375 34.09375 8.125 33.75 8.125 C 33.40625 8.125 33.125 7.84375 33.125 7.5 C 33.125 7.15625 33.40625 6.875 33.75 6.875 C 34.09375 6.875 34.375 7.15625 34.375 7.5 Z M 32.5 7.5 C 32.5 7.84375 32.21875 8.125 31.875 8.125 C 31.53125 8.125 31.25 7.84375 31.25 7.5 C 31.25 7.15625 31.53125 6.875 31.875 6.875 C 32.21875 6.875 32.5 7.15625 32.5 7.5 Z M 30.625 7.5 C 30.625 7.84375 30.34375 8.125 30 8.125 C 29.65625 8.125 29.375 7.84375 29.375 7.5 C 29.375 7.15625 29.65625 6.875 30 6.875 C 30.34375 6.875 30.625 7.15625 30.625 7.5 Z M 6.25 18.125 L 33.75 18.125 C 34.09375 18.125 34.375 17.84375 34.375 17.5 L 34.375 12.5 C 34.375 12.15625 34.09375 11.875 33.75 11.875 L 6.25 11.875 C 5.90625 11.875 5.625 12.15625 5.625 12.5 L 5.625 17.5 C 5.625 17.84375 5.90625 18.125 6.25 18.125 Z M 6.875 13.125 L 33.125 13.125 L 33.125 16.875 L 6.875 16.875 Z M 6.25 25.625 L 18.75 25.625 C 19.09375 25.625 19.375 25.34375 19.375 25 L 19.375 20 C 19.375 19.65625 19.09375 19.375 18.75 19.375 L 6.25 19.375 C 5.90625 19.375 5.625 19.65625 5.625 20 L 5.625 25 C 5.625 25.34375 5.90625 25.625 6.25 25.625 Z M 6.875 20.625 L 18.125 20.625 L 18.125 24.375 L 6.875 24.375 Z M 6.25 33.125 L 18.75 33.125 C 19.09375 33.125 19.375 32.84375 19.375 32.5 L 19.375 27.5 C 19.375 27.15625 19.09375 26.875 18.75 26.875 L 6.25 26.875 C 5.90625 26.875 5.625 27.15625 5.625 27.5 L 5.625 32.5 C 5.625 32.84375 5.90625 33.125 6.25 33.125 Z M 6.875 28.125 L 18.125 28.125 L 18.125 31.875 L 6.875 31.875 Z M 34.375 21.25 C 34.375 21.59375 34.09375 21.875 33.75 21.875 L 21.25 21.875 C 20.90625 21.875 20.625 21.59375 20.625 21.25 C 20.625 20.90625 20.90625 20.625 21.25 20.625 L 33.75 20.625 C 34.09375 20.625 34.375 20.90625 34.375 21.25 Z M 34.375 23.75 C 34.375 24.09375 34.09375 24.375 33.75 24.375 L 21.25 24.375 C 20.90625 24.375 20.625 24.09375 20.625 23.75 C 20.625 23.40625 20.90625 23.125 21.25 23.125 L 33.75 23.125 C 34.09375 23.125 34.375 23.40625 34.375 23.75 Z M 34.375 28.75 C 34.375 29.09375 34.09375 29.375 33.75 29.375 L 21.25 29.375 C 20.90625 29.375 20.625 29.09375 20.625 28.75 C 20.625 28.40625 20.90625 28.125 21.25 28.125 L 33.75 28.125 C 34.09375 28.125 34.375 28.40625 34.375 28.75 Z M 34.375 31.25 C 34.375 31.59375 34.09375 31.875 33.75 31.875 L 21.25 31.875 C 20.90625 31.875 20.625 31.59375 20.625 31.25 C 20.625 30.90625 20.90625 30.625 21.25 30.625 L 33.75 30.625 C 34.09375 30.625 34.375 30.90625 34.375 31.25 Z M 34.375 31.25 "/>
</g>
</svg>
