<?xml version="1.0" encoding="UTF-8"?>
<svg xmlns="http://www.w3.org/2000/svg" xmlns:xlink="http://www.w3.org/1999/xlink" width="40px" height="40px" viewBox="0 0 40 40" version="1.1">
<g id="surface1">
<path stroke="none" fill-rule="nonzero" fill="rgb(100%,100%,100%)" fill-opacity="1" d="M 20.34375 35.078125 C 15.882812 34.9375 11.640625 34.828125 7.398438 34.664062 C 6.484375 34.625 5.554688 34.484375 4.664062 34.273438 C 2.992188 33.882812 1.835938 32.875 1.242188 31.226562 C 0.765625 29.898438 0.59375 28.53125 0.46875 27.140625 C 0.195312 23.875 0.195312 20.609375 0.328125 17.34375 C 0.40625 15.5 0.453125 13.640625 0.945312 11.851562 C 1.242188 10.78125 1.601562 9.734375 2.46875 8.960938 C 3.382812 8.140625 4.453125 7.648438 5.671875 7.59375 C 9.015625 7.429688 12.351562 7.226562 15.695312 7.195312 C 20.195312 7.148438 24.703125 7.210938 29.203125 7.296875 C 31.148438 7.335938 33.109375 7.4375 35.039062 7.6875 C 36.804688 7.921875 38.125 8.90625 38.828125 10.625 C 39.367188 11.945312 39.570312 13.328125 39.6875 14.734375 C 39.992188 18.257812 40 21.78125 39.828125 25.304688 C 39.742188 27.09375 39.65625 28.890625 39.148438 30.632812 C 38.570312 32.632812 37.34375 33.953125 35.296875 34.40625 C 34.5 34.578125 33.671875 34.640625 32.859375 34.671875 C 28.609375 34.820312 24.367188 34.953125 20.34375 35.078125 Z M 16.023438 26.195312 C 19.585938 24.351562 23.109375 22.523438 26.703125 20.65625 C 23.117188 18.78125 19.59375 16.945312 16.023438 15.078125 C 16.023438 18.804688 16.023438 22.46875 16.023438 26.195312 Z M 16.023438 26.195312 "/>
</g>
</svg>
